<svg id="visual" 
viewBox="0 0 900 450" 
width="900" 
height="450" 
xmlns="http://www.w3.org/2000/svg" 
xmlns:xlink="http://www.w3.org/1999/xlink"
 version="1.1">
 <rect x="0" y="0" width="900" height="450" fill="#ffffff"></rect>
 <path d="M0 202L56 219L113 226L169 213L225 226L281 177L338 178L394 
 230L450 215L506 211L563 235L619 197L675 210L731 221L788 172L844 191L900
  184L900 451L844 451L788 451L731 451L675 451L619 451L563 451L506
   451L450 451L394 451L338 451L281 451L225 451L169 451L113 451L56 451L0 451Z"
    fill="#5997da">
    </path>
    <path d="M0 246L56 250L113 199L169 239L225 204L281 209L338 224L394 
    257L450 224L506 253L563 252L619 229L675 232L731 207L788 238L844
     213L900 236L900 451L844 451L788 451L731 451L675 451L619 451L563
      451L506 451L450 451L394 451L338 451L281 451L225 451L169 451L113
       451L56 451L0 451Z" fill="#518dd0"></path>
       <path d="M0 258L56 244L113 257L169 275L225 258L281 257L338
        244L394 268L450 242L506 271L563 240L619 234L675 253L731 274L788 
        251L844 285L900 284L900 451L844 451L788 451L731 451L675 451L619
         451L563 451L506 451L450 451L394 451L338 451L281 451L225 451L169 
         451L113 451L56 451L0 451Z" fill="#4982c5"></path>
         <path d="M0 307L56 274L113 269L169 285L225 298L281 294L338
          285L394 269L450 280L506 272L563 295L619 285L675 280L731
           304L788 275L844 280L900 309L900 451L844 451L788 451L731
            451L675 451L619 451L563 451L506 451L450 451L394 451L338 
            451L281 451L225 451L169 451L113 451L56 451L0 451Z" 
            fill="#4178bb"></path>
            <path d="M0 289L56 288L113 288L169 296L225 334L281 297L338
             293L394 294L450 308L506 312L563 328L619 320L675 312L731 
             315L788 302L844 335L900 319L900 451L844 451L788 451L731 
             451L675 451L619 451L563 451L506 451L450 451L394 451L338 
             451L281 451L225 451L169 451L113 451L56 451L0 451Z" 
             fill="#396eb1"></path>
             <path d="M0 342L56 325L113 357L169 330L225 342L281 355L338 
             359L394 326L450 342L506 358L563 336L619 335L675 337L731 323L788 
             327L844 325L900 325L900 451L844 451L788 451L731 451L675 451L619
              451L563 451L506 451L450 451L394 451L338 451L281 451L225 451L169
              451L113 451L56 451L0 451Z" fill="#3164a7"></path>
              <path d="M0 379L56 375L113 365L169 363L225 367L281 345L338 346L394
               366L450 377L506 364L563 352L619 382L675 380L731 371L788 378L844
                383L900 361L900 451L844 451L788 451L731 451L675 451L619 451L563
                 451L506 451L450 451L394 451L338 451L281 451L225 451L169 451L113
                  451L56 451L0 451Z" fill="#295b9d"></path>
                  <path d="M0 394L56 387L113 395L169 374L225 390L281 378L338
                   380L394 375L450 389L506 399L563 374L619 382L675 376L731 
                   393L788 381L844 392L900 383L900 451L844 451L788 451L731 
                   451L675 451L619 451L563 451L506 451L450 451L394 451L338 
                   451L281 451L225 451L169 451L113 451L56 451L0 451Z" 
                   fill="#215193"></path>
                   <path d="M0 423L56 417L113 429L169 405L225 425L281 408L338
                    406L394 421L450 412L506 424L563 420L619 410L675 408L731
                     406L788 418L844 415L900 407L900 451L844 451L788 451L731 
                     451L675 451L619 451L563 451L506 451L450 451L394 451L338 
                     451L281 451L225 451L169 451L113 451L56 451L0 451Z" 
                     fill="#184889"></path>
                     </svg>